<svg width="16" height="9" viewBox="0 0 16 9" fill="none" xmlns="http://www.w3.org/2000/svg">
<path d="M1.41477 0.272727L4.00568 7.61932H4.10795L6.69886 0.272727H7.80682L4.60227 9H3.51136L0.306818 0.272727H1.41477ZM9.16619 9V0.272727H12.1151C12.7997 0.272727 13.3594 0.396307 13.794 0.643466C14.2315 0.887784 14.5554 1.21875 14.7656 1.63636C14.9759 2.05398 15.081 2.51989 15.081 3.03409C15.081 3.5483 14.9759 4.01562 14.7656 4.43608C14.5582 4.85653 14.2372 5.19176 13.8026 5.44176C13.3679 5.68892 12.8111 5.8125 12.1321 5.8125H10.0185V4.875H12.098C12.5668 4.875 12.9432 4.79403 13.2273 4.6321C13.5114 4.47017 13.7173 4.25142 13.8452 3.97585C13.9759 3.69744 14.0412 3.38352 14.0412 3.03409C14.0412 2.68466 13.9759 2.37216 13.8452 2.09659C13.7173 1.82102 13.5099 1.60511 13.223 1.44886C12.9361 1.28977 12.5554 1.21023 12.081 1.21023H10.223V9H9.16619Z" fill="black"/>
</svg>
